{"title":"Nirvana Live And Loud 2013 DVD Rip Dolby Digital 5.1","uid":8976013,"size":733843471,"categoryP":"video","categoryS":"music_videos","magnet":"?xt=urn:btih:f69333da5dfdd23569f22e6db883130a6150625d&amp;dn=Nirvana+Live+And+Loud+2013+DVD+Rip+Dolby+Digital+5.1&amp;tr=udp%3A%2F%2Ftracker.openbittorrent.com%3A80&amp;tr=udp%3A%2F%2Fopen.demonii.com%3A1337&amp;tr=udp%3A%2F%2Ftracker.coppersurfer.tk%3A6969&amp;tr=udp%3A%2F%2Fexodus.desync.com%3A6969","seeders":4,"leechers":0,"uploader":"Rafillo","files":-1,"time":1380441115,"description":"Nirvana Live And Loud MKV Dolby Digital 5.1 DVD Rip\n\n####################################################\n\nLive And Loud showcases the final touring lineup of Cobain, Novoselic, Grohl, and Pat Smear and features their complete 'Live and Loud' show from Seattle's Pier 48 on December 13, 1993.\n\nTracklist:\n1. Radio Friendly Unit Shifter (DVD)\n2. Drain You (DVD)\n3. Breed (DVD)\n4. Serve The Servants (DVD)\n5. Rape Me (DVD)\n6. Sliver (DVD)\n7. Pennyroyal Tea (DVD)\n8. Scentless Apprentice (DVD)\n9. All Apologies (DVD)\n10. Heart-Shaped Box (DVD)\n11. Blew (DVD)\n12. The Man Who Sold The World (DVD)\n13. School (DVD)\n14. Come As You Are (DVD)\n15. Lithium (DVD)\n16. About a Girl (DVD)\n17. Endless, Nameless (DVD)\n\n###################################################\n\nScreenshots:\n &lt;a href=&quot;\nhttp://bayimg.com/DaadaaAfD&quot; rel=&quot;nofollow&quot; target=&quot;_NEW&quot;&gt;\nhttp://bayimg.com/DaadaaAfD&lt;/a&gt; &lt;a href=&quot;\nhttp://bayimg.com/DaaDoAafd&quot; rel=&quot;nofollow&quot; target=&quot;_NEW&quot;&gt;\nhttp://bayimg.com/DaaDoAafd&lt;/a&gt; &lt;a href=&quot;\nhttp://bayimg.com/dAADPAafd&quot; rel=&quot;nofollow&quot; target=&quot;_NEW&quot;&gt;\nhttp://bayimg.com/dAADPAafd&lt;/a&gt; &lt;a href=&quot;\nhttp://bayimg.com/EaaDHAAFd&quot; rel=&quot;nofollow&quot; target=&quot;_NEW&quot;&gt;\nhttp://bayimg.com/EaaDHAAFd&lt;/a&gt; &lt;a href=&quot;\nhttp://bayimg.com/EAadIAAFD&quot; rel=&quot;nofollow&quot; target=&quot;_NEW&quot;&gt;\nhttp://bayimg.com/EAadIAAFD&lt;/a&gt; &lt;a href=&quot;\nhttp://bayimg.com/EAADKaAfD&quot; rel=&quot;nofollow&quot; target=&quot;_NEW&quot;&gt;\nhttp://bayimg.com/EAADKaAfD&lt;/a&gt;\n\n###################################################\n\nTechnical Info:\n\nGeneral\nComplete name                  : Nirvana - Live and loud - DD5-1.mkv\nFormat                         : Matroska\nFormat version                 : Version 4 / Version 2\nFile size                      : 700 MiB\nDuration                       : 1h 16mn\nOverall bit rate mode          : Variable\nOverall bit rate               : 1 276 Kbps\nEncoded date                   : UTC 2013-09-28 23:03:28\nWriting application            : mkvmerge v6.3.0 ('You can't stop me!') built on Jun 28 2013 20:09:41\nWriting library                : libebml v1.3.0 + libmatroska v1.4.0\n\nVideo\nID                             : 1\nFormat                         : AVC\nFormat/Info                    : Advanced Video Codec\nFormat profile                 : &lt;a class=&quot;__cf_email__&quot; href=&quot;/cdn-cgi/l/email-protection&quot; data-cfemail=&quot;a1e9c8c6c9e1ed958f90&quot;&gt;[email&amp;#160;protected]&lt;/a&gt;&lt;script cf-hash='f9e31' type=&quot;text/javascript&quot;&gt;\n/* &lt;![CDATA[ */!function(){try{var t=&quot;currentScript&quot;in document?document.currentScript:function(){for(var t=document.getElementsByTagName(&quot;script&quot;),e=t.length;e--;)if(t[e].getAttribute(&quot;cf-hash&quot;))return t[e]}();if(t&amp;&amp;t.previousSibling){var e,r,n,i,c=t.previousSibling,a=c.getAttribute(&quot;data-cfemail&quot;);if(a){for(e=&quot;&quot;,r=parseInt(a.substr(0,2),16),n=2;a.length-n;n+=2)i=parseInt(a.substr(n,2),16)^r,e+=String.fromCharCode(i);e=document.createTextNode(e),c.parentNode.replaceChild(e,c)}}}catch(u){}}();/* ]]&gt; */&lt;/script&gt;\nFormat settings, CABAC         : Yes\nFormat settings, ReFrames      : 5 frames\nCodec ID                       : V_MPEG4/ISO/AVC\nDuration                       : 1h 16mn\nBit rate mode                  : Variable\nBit rate                       : 826 Kbps\nMaximum bit rate               : 40.0 Mbps\nWidth                          : 720 pixels\nHeight                         : 480 pixels\nDisplay aspect ratio           : 4:3\nFrame rate mode                : Constant\nFrame rate                     : 29.970 fps\nStandard                       : NTSC\nColor space                    : YUV\nChroma subsampling             : 4:2:0\nBit depth                      : 8 bits\nScan type                      : MBAFF\nBits/(Pixel*Frame)             : 0.080\nStream size                    : 440 MiB (63%)\nWriting library                : x264 core 130 r2273 b3065e6\nEncoding settings              : cabac=1 // deblock=1:-1:-1 / analyse=0x3:0x133 / me=umh / subme=10 / psy=1 / psy_rd=1.00:0.15 // me_range=24 / chroma_me=1 / trellis=2 / 8x8dct=1 / cqm=0 / deadzone=21,11 / fast_pskip=1 / chroma_qp_offset=-3 / threads=6 / lookahead_threads=1 / sliced_threads=0 / slices=4 / nr=0 / decimate=1 / interlaced=bff / bluray_compat=1 / constrained_intra=0 / bframes=3 / b_pyramid=1 / b_adapt=2 / b_bias=0 / direct=3 / weightb=1 / open_gop=1 / weightp=0 / keyint=30 / keyint_min=1 / scenecut=40 / intra_refresh=0 / rc_lookahead=30 / rc=2pass / mbtree=1 / bitrate=826 / ratetol=1.0 / qcomp=0.60 / qpmin=0 / qpmax=69 / qpstep=4 / cplxblur=20.0 / qblur=0.5 / vbv_maxrate=40000 / vbv_bufsize=30000 / nal_hrd=vbr / ip_ratio=1.40 / aq=1:1.00\nDefault                        : Yes\nForced                         : No\nColor primaries                : BT.601 NTSC\nTransfer characteristics       : BT.601\nMatrix coefficients            : BT.601\n\nAudio\nID                             : 2\nFormat                         : AC-3\nFormat/Info                    : Audio Coding 3\nMode extension                 : CM (complete main)\nFormat settings, Endianness    : Big\nCodec ID                       : A_AC3\nDuration                       : 1h 16mn\nBit rate mode                  : Constant\nBit rate                       : 448 Kbps\nChannel(s)                     : 6 channels\nChannel positions              : Front: L C R, Side: L R, LFE\nSampling rate                  : 48.0 KHz\nBit depth                      : 16 bits\nCompression mode               : Lossy\nStream size                    : 246 MiB (35%)\nDefault                        : Yes\nForced                         : No\n\nMenu\n00:00:00.000                   : :Radio Friendly Unit Shifter\n00:04:48.333                   : :Drain You\n00:08:29.733                   : :Breed\n00:11:46.233                   : :Serve The Servants\n00:15:08.933                   : :Rape Me\n00:17:48.266                   : :Sliver\n00:20:08.200                   : :Pennyroyal Tea\n00:24:46.200                   : :Scentless Apprentice\n00:28:39.967                   : :All Apologies\n00:32:37.667                   : :Heart-Shaped-Box\n00:38:42.134                   : :Blew\n00:43:03.634                   : :The Man Who Sold The World\n00:47:38.134                   : :School\n00:50:28.868                   : :Come As You Are\n00:54:14.702                   : :Lithium\n00:59:12.502                   : :About A Girl\n01:02:00.502                   : :Endless, Nameless\n01:15:07.668                   : :End Credits\n\n\n###################################################\n\nCompatible for Bluray players an other devices.","torrent":{"xt":"urn:btih:f69333da5dfdd23569f22e6db883130a6150625d","amp;dn":"Nirvana+Live+And+Loud+2013+DVD+Rip+Dolby+Digital+5.1","amp;tr":["udp%3A%2F%2Ftracker.openbittorrent.com%3A80","udp%3A%2F%2Fopen.demonii.com%3A1337","udp%3A%2F%2Ftracker.coppersurfer.tk%3A6969","udp%3A%2F%2Fexodus.desync.com%3A6969"],"infoHash":"f69333da5dfdd23569f22e6db883130a6150625d","infoHashBuffer":{"type":"Buffer","data":[246,147,51,218,93,253,210,53,105,242,46,109,184,131,19,10,97,80,98,93]},"announce":[],"urlList":[]}}